PathFileType	4	(X/Y/Z)	Patient4_TMGait_0pt6_01_right_03.trc.trc
DataRate	CameraRate	NumFrames	NumMarkers	Units	OrigDataRate	OrigDataStartFrame	OrigNumFrames
84.337349397590	84.337349397590	5	33	mm	84.337349397590	53	       141
Frame#	Time	Sacral			L.Shoulder			Chest			R.Shoulder			Neck			R.ASIS			L.ASIS			R.Thigh.Superior			R.Thigh.Lateral			R.Thigh.Inferior			R.Patella			L.Thigh.Superior			L.Thigh.Lateral			L.Thigh.Inferior			L.Patella			L.Shank.Superior			L.Shank.Lateral			L.Shank.Inferior			R.Shank.Superior			R.Shank.Lateral			R.Shank.Inferior			R.Heel			R.Midfoot.Superior			R.Midfoot.Lateral			R.Toe			L.Heel			L.Midfoot.Lateral			L.Midfoot.Superior			L.Toe			L.Elbow			L.Wrist			R.Elbow			R.Wrist			
		X1	Y1	Z1	X2	Y2	Z2	X3	Y3	Z3	X4	Y4	Z4	X5	Y5	Z5	X6	Y6	Z6	X7	Y7	Z7	X8	Y8	Z8	X9	Y9	Z9	X10	Y10	Z10	X11	Y11	Z11	X12	Y12	Z12	X13	Y13	Z13	X14	Y14	Z14	X15	Y15	Z15	X16	Y16	Z16	X17	Y17	Z17	X18	Y18	Z18	X19	Y19	Z19	X20	Y20	Z20	X21	Y21	Z21	X22	Y22	Z22	X23	Y23	Z23	X24	Y24	Z24	X25	Y25	Z25	X26	Y26	Z26	X27	Y27	Z27	X28	Y28	Z28	X29	Y29	Z29	X30	Y30	Z30	X31	Y31	Z31	X32	Y32	Z32	X33	Y33	Z33	

53	3.626571428571	599.254490784628	1012.954774661892	496.574541109008	751.584742588080	1441.991597133724	312.053075803355	875.056640376114	1371.775610369920	457.715175111539	811.697654863997	1443.417825854100	639.443426530747	758.208345131001	1500.529523815182	464.828928193903	833.601472678107	943.840790193133	595.846224612560	800.262076445033	970.527951998425	323.028081568718	858.907717192067	738.385423503788	565.887191120911	770.506699378424	635.014654399938	625.935081160132	840.838753287961	578.454286297446	543.924352889572	835.047537407885	493.580802722286	547.583043190138	886.720639277319	788.806228703500	350.395591875062	842.404389210692	661.235700595232	274.670704190020	948.954899442177	601.795013948263	331.090793508770	967.432625913340	517.060551770782	323.734353661647	915.943046772971	443.431583551768	318.796390407654	788.336814600382	366.727539721986	275.765394649016	812.881761323008	238.886217166635	330.281176037570	809.277928469714	405.718208154049	553.775376489792	739.237297977352	300.398877169830	612.671678218943	782.783850434099	207.335521673496	548.113064498344	649.826232031558	41.850668427786	513.039713250816	820.468265687087	96.117931939335	551.023848501990	731.915940715250	35.891026371198	588.622532045021	940.002571989695	44.661578351437	581.538658225533	649.455073130570	123.172959123639	377.456273710714	711.414328232934	99.904065836753	291.209650885385	811.186978495914	136.495759246410	307.350191890103	914.835486096570	53.227613724944	267.794905515538	811.439580371497	1102.260104695678	178.361426108108	1041.389829764812	997.242117963259	243.451120362244	965.185481182879	1148.657290845177	761.501988952101	1157.561241773080	1255.635411523636	649.692524204483	
54	3.638428571429	598.367787351928	1013.649183039198	498.104561988331	750.460148146942	1441.953473942012	312.448063089231	875.077152500808	1371.549676359312	457.060069018406	813.471625034674	1443.622579132153	639.151725590466	758.565940773278	1500.503987601943	465.027067699395	833.310474219589	943.441938276219	595.491510054778	798.253799658001	970.766710864773	323.110900810989	856.290429233188	737.581808787877	564.637290355254	767.749970532347	634.868383885490	626.001861555705	836.552405814314	577.749060547086	543.298925197857	830.096127642414	492.985154977076	547.174276534025	885.341360894120	789.913739342673	350.784543579514	841.662521962305	662.039497482848	275.093304099595	947.828692173589	603.035257491735	332.363993837247	967.729623909865	519.974867638708	324.928598407955	919.843476663959	445.524900097922	319.236714383023	797.293068626256	361.900984188516	275.077561471192	829.125201562951	235.189949865950	329.131119235660	803.870026777582	405.265530178761	553.469051781027	733.618934489298	300.258941895899	612.628409634193	776.379737555303	207.046009878655	547.853447904838	642.648527106354	41.802785885580	513.045748019642	813.293588190128	96.070831123166	550.950932405117	724.731374975047	35.857769387549	588.582565050215	932.819230927933	44.616977409371	581.533042365053	672.703102229168	110.073115295155	375.067670939849	736.326791364286	90.560888167756	289.136031070490	833.799153115747	132.594802422170	305.910712171336	942.148632375147	55.294373670556	266.854318116390	802.972113161948	1099.917870202126	179.543988953954	1027.045730220347	980.455613582406	241.688089339667	976.664786624295	1155.610741326842	760.026377733403	1162.053868016558	1272.882738158672	647.387276268219	
55	3.650285714286	597.488821368801	1014.236108547571	499.516424164623	749.459088037643	1441.801668544507	312.715555455754	875.151163408861	1371.176142236466	456.307285294034	815.257370274039	1443.681923589066	638.716011723113	758.990492514394	1500.356629826019	465.087140276788	833.020842389682	942.952625702398	595.026951345444	796.299268319170	970.805904566878	323.140646217679	853.815110350665	736.742820994816	563.416609268236	765.169484260128	634.645994472723	626.043850947587	832.487568424645	577.015150236678	542.662540446739	825.381655998267	492.318044304358	546.755902010088	883.688894202152	790.529535993727	351.087894713812	840.420060176515	662.440840833826	275.442235685635	945.981344656861	603.664413176357	333.767580805706	967.285071703524	522.485762717740	326.256352115472	923.125052948127	447.459580244808	319.808097114078	806.316422208762	357.016811946111	274.272455121066	845.374836174394	231.959550064802	328.144427068777	798.653355681602	404.738903670764	553.157644198292	728.139951241597	300.076639411185	612.589048584616	770.030497853866	206.699115545513	547.586235083101	635.462555637852	41.750598567317	513.058329901286	806.118676788323	96.021512297779	550.882885591922	717.545437836751	35.824534497786	588.562326514542	925.631472635944	44.572935175130	581.518929566428	696.542736708306	97.728673414493	372.571206580096	761.918695273484	82.006520707221	287.193127307954	856.687201779209	129.434923353741	304.792982577652	969.552625203578	58.362537585627	266.716648256594	795.040112808338	1097.766954757975	180.608095842397	1012.467380693493	964.566889563365	239.889939235089	987.510099594335	1162.562157313267	758.313513154646	1166.042420903011	1289.062109071597	645.149721985068	
56	3.662142857143	596.638102252767	1014.708750944361	500.801269410956	748.598780858420	1441.536895856731	312.838642725886	875.277551161194	1370.664679948004	455.461567610706	817.027000228417	1443.609017453912	638.133658791218	759.480284552575	1500.099934841514	464.992331450660	832.738722150441	942.387797076152	594.478435045461	794.409705400030	970.656011860625	323.109543069464	851.533432950731	735.875690089542	562.285317047118	762.778243490995	634.342994044221	626.053963140603	828.692243177832	576.247930203538	542.030046238902	820.945921783730	491.576890708357	546.323504140932	881.764481368251	790.665904334301	351.313135441516	838.711750044641	662.475179505713	275.674334981119	943.488688827826	603.736965772080	335.221267287534	966.169461945043	524.616374336581	327.648963536303	925.805706760647	449.262442080930	320.475663276858	815.340925918203	352.238268991056	273.370526684668	861.422496250973	229.355871590435	327.373958872056	793.670021122100	404.135605045163	552.835405713722	722.824421941888	299.858083997620	612.543143334516	763.752606242432	206.296354599459	547.309368558183	628.268471478038	41.700350416069	513.079275603673	798.944419358594	95.969955441530	550.817339917978	710.359002450991	35.793500567405	588.561438319708	918.441300766436	44.526903475790	581.498568673916	720.639894377961	86.481725569799	370.084913360836	787.845829923863	74.489431269853	285.507528195694	879.538776977652	127.179472134196	304.075422454146	996.659816398045	62.504467813168	267.499523730219	787.631571750258	1095.779540633722	181.532790441283	997.816233922211	949.717457560498	238.076816242904	997.672173305403	1169.424214912540	756.366012912670	1169.616661816644	1304.124772059313	642.954259972220	
57	3.674000000000	595.838112687821	1015.062748810266	501.949609215064	747.890308434840	1441.164060559261	312.803137186805	875.453503576628	1370.032106942122	454.528920716082	818.750418998578	1443.422059964900	637.404783529907	760.028103854138	1499.749123224256	464.729379583551	832.473753677862	941.763287638503	593.870182879322	792.597112106418	970.334500924055	323.004904638574	849.481560769057	734.986570012432	561.282860236728	760.583868220807	633.956844004897	626.021170018949	825.199688624719	575.443761170123	541.407426892371	816.817294293308	490.761090604853	545.869636505555	879.585538964594	790.349730918828	351.462691461944	836.589041911295	662.184534465844	275.753713290279	940.456011127748	603.322432946239	336.633738033865	964.465815157523	526.389757152176	329.035698477412	927.911262715323	450.947925359653	321.195048908664	824.253383204308	347.700187992235	272.417680488766	877.040822192248	227.476091416658	326.855174806973	788.948942420210	403.456224719327	552.493982441764	717.688825335279	299.610782014910	612.479801219264	757.559298040861	205.841838742023	547.019965509597	621.068387792055	41.658428783040	513.108826408012	791.772832668144	95.916768731816	550.752332116140	703.173182634303	35.766794564455	588.577285985566	911.251132358568	44.475875666575	581.474345223561	744.615882970279	76.583118936939	367.747554376196	813.699238590460	68.161966199817	284.197691045168	902.006602115455	125.903872747709	303.799528578524	1023.057243969201	67.686718622099	269.228509650684	780.712926356155	1093.931610832362	182.301929106624	983.258463287313	936.021963730480	236.265406440609	1007.108768730694	1176.112862131986	754.187927261583	1172.862371629841	1318.032249645250	640.774425444951	
